<mxfile host="app.diagrams.net" modified="2023-08-31T12:49:52.749Z" agent="Mozilla/5.0 (Windows NT 10.0; Win64; x64) AppleWebKit/537.36 (KHTML, like Gecko) Chrome/116.0.0.0 Safari/537.36" version="21.7.1" etag="M17KHVjnx_fK9rm7PCG6" type="github">
  <diagram name="PÃ¡gina-1" id="SY1q32bG39gSV87c8nh6">
    <mxGraphModel>
      <root>
        <mxCell id="0" />
        <mxCell id="1" parent="0" />
      </root>
    </mxGraphModel>
  </diagram>
</mxfile>
